# xmcd
#
# Track frame offsets:
#	150
#	12787
#	24882
#	37612
#	51755
#	62680
#	75365
#	87772
#	102747
#	112782
#	123695
#	138015
#	150400
#	163650
#	175792
#	188220
#	199277
#	210640
#	220367
#	230077
#
# Disc length: 3234 seconds
#
# Revision: 0
# Processed by: cddbd v1.5.1PL0 Copyright (c) Steve Scherf et al.
# Submitted via: dBpowerAMP V4.0
#
DISCID=fd0ca014
DTITLE=Dinah Washington - Her greatest hits
DYEAR=1900
DGENRE=
TTITLE0=Am I asking too much
TTITLE1=It's too soon to know
TTITLE2=Baby get lost
TTITLE3=Long John blues
TTITLE4=I only know
TTITLE5=I wanna be loved
TTITLE6=I'll never be free
TTITLE7=Cold, cold heart
TTITLE8=Whell of fortune
TTITLE9=T.V. is the thing (This year)
TTITLE10=I don't hurt anymore
TTITLE11=Teach me tonight
TTITLE12=What a difference a day makes
TTITLE13=Unforgettable
TTITLE14=Baby (You've got what it takes) - with Brook Benton
TTITLE15=A rockin' good way (To mess around and fall in love) - with Brook Benton
TTITLE16=This bitter Earth
TTITLE17=Love walked in
TTITLE18=eptember in the rain
TTITLE19=Mad about the boy
EXTD=
EXTT0=
EXTT1=
EXTT2=
EXTT3=
EXTT4=
EXTT5=
EXTT6=
EXTT7=
EXTT8=
EXTT9=
EXTT10=
EXTT11=
EXTT12=
EXTT13=
EXTT14=
EXTT15=
EXTT16=
EXTT17=
EXTT18=
EXTT19=
PLAYORDER=
